<svg width="188" height="12" viewBox="0 0 188 12" fill="none" xmlns="http://www.w3.org/2000/svg">
<g id="Group 12">
<path id="Vector" d="M87.5698 11.7247L88.19 9.65648H91.7436L92.3638 11.7247H95.5183L91.9649 0.919434H87.9695L84.416 11.7247H87.5698ZM88.8525 7.46163L89.925 3.8951H90.0094L91.0819 7.46163H88.8525Z" fill="white"/>
<path id="Vector_2" d="M96.5553 11.7247H99.4782V8.15805H100.487L102.38 11.7247H105.555L103.368 7.69377C104.514 7.13982 105.197 6.08994 105.197 4.59152C105.197 2.29119 103.594 0.919434 101.202 0.919434H96.5553V11.7247ZM99.4782 5.8789V3.26196H100.508C101.534 3.26196 102.149 3.66295 102.149 4.59152C102.149 5.51482 101.534 5.8789 100.508 5.8789H99.4782Z" fill="white"/>
<path id="Vector_3" d="M106.149 3.28306H109.387V11.7247H112.268V3.28306H115.506V0.919434H106.149V3.28306Z" fill="white"/>
<path id="Vector_4" d="M126.547 4.48577H129.501C129.275 2.3173 127.314 0.771484 124.769 0.771484C121.868 0.771484 119.513 2.77631 119.513 6.34291C119.513 9.76169 121.647 11.8721 124.791 11.8721C127.609 11.8721 129.627 10.1416 129.627 7.18702V5.68868H124.854V7.77796H126.809C126.783 8.71708 126.121 9.3185 124.812 9.3185C123.298 9.3185 122.52 8.20006 122.52 6.30064C122.52 4.42768 123.361 3.32506 124.833 3.32506C125.747 3.32506 126.368 3.74707 126.547 4.48577Z" fill="white"/>
<path id="Vector_5" d="M133.454 11.7247L134.074 9.65648H137.628L138.249 11.7247H141.402L137.849 0.919434H133.854L130.3 11.7247H133.454ZM134.737 7.46163L135.809 3.8951H135.893L136.966 7.46163H134.737Z" fill="white"/>
<path id="Vector_6" d="M142.439 11.7247H149.715V9.36104H145.362V0.919434H142.439V11.7247Z" fill="white"/>
<path id="Vector_7" d="M150.896 11.7247H158.171V9.36104H153.819V0.919434H150.896V11.7247Z" fill="white"/>
<path id="Vector_8" d="M159.353 11.7247H167.091V9.36104H162.276V7.5039H166.713V5.1402H162.276V3.28306H167.112V0.919434H159.353V11.7247Z" fill="white"/>
<path id="Vector_9" d="M168.562 11.7247H171.485V8.15805H172.493L174.386 11.7247H177.561L175.374 7.69377C176.521 7.13982 177.204 6.08994 177.204 4.59152C177.204 2.29119 175.601 0.919434 173.208 0.919434H168.562V11.7247ZM171.485 5.8789V3.26196H172.515C173.54 3.26196 174.155 3.66295 174.155 4.59152C174.155 5.51482 173.54 5.8789 172.515 5.8789H171.485Z" fill="white"/>
<path id="Vector_10" d="M177.502 0.919434L181.455 8.32691V11.7247H184.357V8.32691L188.31 0.919434H185.051L182.948 5.30905H182.864L180.762 0.919434H177.502Z" fill="white"/>
<path id="Vector_11" d="M80.4087 0.919434V11.7246H77.9696L74.0796 6.04766H74.0165V11.7246H71.0937V0.919434H73.5749L77.4019 6.57526H77.486V0.919434H80.4087Z" fill="white"/>
<path id="Vector_12" d="M61.8858 11.7246V0.919434H69.6449V3.28306H64.8086V5.1402H69.2454V7.50383H64.8086V9.36097H69.6238V11.7246H61.8858Z" fill="white"/>
<path id="Vector_13" d="M51.4289 3.28306V0.919434H60.7859V3.28306H57.5478V11.7246H54.667V3.28306H51.4289Z" fill="white"/>
<path id="Vector_14" d="M42.5144 11.7246V0.919434H50.2734V3.28306H45.4372V5.1402H49.8739V7.50383H45.4372V9.36097H50.2524V11.7246H42.5144Z" fill="white"/>
<path id="Vector_15" d="M34.0572 11.7246V0.919434H36.98V9.36097H41.3326V11.7246H34.0572Z" fill="white"/>
<path id="Vector_16" d="M24.3426 11.7246V0.919434H28.9896C29.7886 0.919434 30.4878 1.07771 31.0871 1.39427C31.6863 1.71083 32.1524 2.15577 32.4854 2.72909C32.8183 3.30241 32.9848 3.97246 32.9848 4.73923C32.9848 5.51303 32.813 6.18308 32.4696 6.74937C32.1297 7.31565 31.6513 7.7518 31.0345 8.0578C30.4212 8.36381 29.7045 8.51681 28.8845 8.51681H26.1089V6.2376H28.2957C28.6392 6.2376 28.9318 6.1778 29.1736 6.05822C29.4189 5.93511 29.6064 5.761 29.7361 5.5359C29.8692 5.31079 29.9358 5.04523 29.9358 4.73923C29.9358 4.4297 29.8692 4.16591 29.7361 3.94783C29.6064 3.72624 29.4189 3.55741 29.1736 3.44134C28.9318 3.32175 28.6392 3.26196 28.2957 3.26196H27.2654V11.7246H24.3426Z" fill="white"/>
<path id="Vector_17" d="M22.9579 0.919434V11.7246H20.0351V0.919434H22.9579Z" fill="white"/>
<path id="Vector_18" d="M10.1471 11.7246V0.919434H14.7941C15.5931 0.919434 16.2922 1.0654 16.8915 1.35734C17.4908 1.64927 17.9569 2.06959 18.2898 2.61829C18.6228 3.16699 18.7892 3.82473 18.7892 4.5915C18.7892 5.36531 18.6175 6.01777 18.2741 6.54888C17.9341 7.07999 17.4557 7.48097 16.839 7.7518C16.2257 8.02263 15.509 8.15805 14.6889 8.15805H11.9133V5.87883H14.1002C14.4436 5.87883 14.7362 5.83663 14.978 5.75221C15.2234 5.66428 15.4109 5.52534 15.5405 5.33541C15.6737 5.14548 15.7403 4.89751 15.7403 4.5915C15.7403 4.28198 15.6737 4.03049 15.5405 3.83704C15.4109 3.64007 15.2234 3.49586 14.978 3.40441C14.7362 3.30944 14.4436 3.26196 14.1002 3.26196H13.0698V11.7246H10.1471ZM16.4552 6.76519L19.1467 11.7246H15.9716L13.3432 6.76519H16.4552Z" fill="white"/>
<path id="Vector_19" d="M-0.309906 3.28306V0.919434H9.04717V3.28306H5.80899V11.7246H2.92827V3.28306H-0.309906Z" fill="white"/>
</g>
</svg>
